# xmcd CD database file
#
# Track frame offsets:
#	150
#	3892
#	23175
#	40980
#	62537
#	87600
#
# Disc length: 2051 seconds
#
# Revision: 2
# Processed by: cddbd v1.5.2PL0 Copyright (c) Steve Scherf et al.
# Submitted via: CDex 1.70beta3
#
DISCID=41080106
DTITLE=angela - 宝箱-TREASURE BOX- [CD2]
DYEAR=2007
DGENRE=New Age
TTITLE0=overture
TTITLE1=恋のfirst run
TTITLE2=涙が止まるまで
TTITLE3=Tears on my pillow
TTITLE4=LOVE LOVE Sweetie
TTITLE5=君の傍で
EXTD=YEAR: 2007
EXTT0=
EXTT1=
EXTT2=
EXTT3=
EXTT4=
EXTT5=
PLAYORDER=
